<?xml version="1.0" ?><!DOCTYPE svg  PUBLIC '-//W3C//DTD SVG 1.1//EN'  'http://www.w3.org/Graphics/SVG/1.1/DTD/svg11.dtd'><svg enable-background="new 0 0 30 30" height="30px" id="Capa_1" version="1.1" viewBox="0 0 30 30" width="30px" xml:space="preserve" xmlns="http://www.w3.org/2000/svg" xmlns:xlink="http://www.w3.org/1999/xlink"><g><g><path d="M25.1,4.7c-0.4,0.4-0.4,1.1,0,1.6c0.4,0.4,1.1,0.4,1.6,0c0.4-0.4,0.4-1.1,0-1.6    C26.3,4.3,25.6,4.3,25.1,4.7z M29.2,3.9l-3.1-3.1c-0.9-0.8-2.3-0.9-3.2,0L0.8,22.9c-0.9,0.9-0.9,2.3,0,3.2l3.1,3.1    c0.4,0.4,1,0.7,1.6,0.7c0.6,0,1.2-0.2,1.6-0.7L29.2,7.1c0.4-0.4,0.7-1,0.7-1.6S29.6,4.3,29.2,3.9z M28.1,6.1L6.1,28.1    c-0.3,0.3-0.8,0.3-1.1,0L1.9,25c-0.3-0.3-0.3-0.8,0-1.1l1.7-1.7l1,1c0.1,0.1,0.3,0.2,0.5,0.2s0.4-0.1,0.5-0.2    c0.3-0.3,0.3-0.8,0-1.1l-1-1l2.9-2.9l1,1c0.1,0.1,0.3,0.2,0.5,0.2s0.4-0.1,0.5-0.2c0.3-0.3,0.3-0.8,0-1.1l-1-1l2.9-2.9l1,1    c0.1,0.1,0.3,0.2,0.5,0.2s0.4-0.1,0.5-0.2c0.3-0.3,0.3-0.8,0-1.1l-1-1l2.9-2.9l1,1c0.1,0.1,0.3,0.2,0.5,0.2s0.4-0.1,0.5-0.2    c0.3-0.3,0.3-0.8,0-1.1l-1-1l2.9-2.9l1,1c0.1,0.1,0.3,0.2,0.5,0.2s0.4-0.1,0.5-0.2c0.3-0.3,0.3-0.8,0-1.1l-1-1l3.5-3.5    c0.1-0.1,0.3-0.2,0.5-0.2c0.2,0,0.4,0.1,0.5,0.2L28.1,5c0.1,0.1,0.2,0.3,0.2,0.5S28.3,5.9,28.1,6.1z" fill="#262324"/></g></g></svg>