<?xml version="1.0" encoding="utf-8"?>
<!-- Generator: Adobe Illustrator 24.1.1, SVG Export Plug-In . SVG Version: 6.00 Build 0)  -->
<svg version="1.1" id="Camada_1" xmlns="http://www.w3.org/2000/svg" xmlns:xlink="http://www.w3.org/1999/xlink" x="0px" y="0px"
	 viewBox="0 0 2099 555" style="enable-background:new 0 0 2099 555;" xml:space="preserve">
<style type="text/css">
	.st0{fill:#323956;}
	.st1{font-family:'Gotham-Medium';}
	.st2{font-size:34.1165px;}
	.st3{font-family:'Gotham-Bold';}
	.st4{font-size:26px;}
	.st5{font-size:23.5416px;}
	.st6{font-family:'Gotham-Book';}
	.st7{font-size:20px;}
	.st8{font-size:22.401px;}
	.st9{font-size:19px;}
	.st10{font-family:'Gotham-Black';}
	.st11{font-size:20.0426px;}
</style>
<text id="XMLID_9_" transform="matrix(1 0 0 1 586.884 68.8057)" class="st0 st1 st2">gUIA DE MEDIDAS CALÇA SKINNY OFFLIMITS BY MAPS</text>
<text id="XMLID_1_" transform="matrix(1 0 0 1 74.9904 129.3926)" class="st0 st3 st4">TAMANHO</text>
<text id="XMLID_2_" transform="matrix(1 0 0 1 103.3646 191.4923)" class="st0 st1 st5">Cintura</text>
<text id="XMLID_10_" transform="matrix(1 0 0 1 245.2891 191.204)" class="st0 st6 st7">62  72  (82*)</text>
<text id="XMLID_13_" transform="matrix(1 0 0 1 245.7593 241.6981)" class="st0 st6 st7">72 88 (100*)</text>
<text id="XMLID_15_" transform="matrix(1 0 0 1 250.5293 295.0507)" class="st0 st6 st7">38 48 (58*)</text>
<text id="XMLID_14_" transform="matrix(1 0 0 1 250.6592 345.9979)" class="st0 st6 st7">26 34 (38*)</text>
<text id="XMLID_16_" transform="matrix(1 0 0 1 252.3291 411.4882)" class="st0 st6 st7">100 105 110</text>
<text id="XMLID_20_" transform="matrix(1 0 0 1 405.1792 191.204)" class="st0 st6 st7">64 76 (88*)</text>
<text id="XMLID_19_" transform="matrix(1 0 0 1 400.1792 241.6981)" class="st0 st6 st7">74 90 (102*)</text>
<text id="XMLID_18_" transform="matrix(1 0 0 1 402.6392 295.0507)" class="st0 st6 st7">40 50 (60*)</text>
<text id="XMLID_17_" transform="matrix(1 0 0 1 404.6392 345.9979)" class="st0 st6 st7">28 36 (40*)</text>
<text id="XMLID_8_" transform="matrix(1 0 0 1 387.9692 411.4882)" class="st0 st6 st7">100 110 120 125</text>
<text id="XMLID_31_" transform="matrix(1 0 0 1 577.4988 191.204)" class="st0 st6 st7">66 78 (90*)</text>
<text id="XMLID_30_" transform="matrix(1 0 0 1 573.959 241.6981)" class="st0 st6 st7">78 92 (104*)</text>
<text id="XMLID_29_" transform="matrix(1 0 0 1 576.8882 295.0507)" class="st0 st6 st7">44 54 (64*)</text>
<text id="XMLID_28_" transform="matrix(1 0 0 1 577.9083 345.9979)" class="st0 st6 st7">30 38 (42*)</text>
<text id="XMLID_27_" transform="matrix(1 0 0 1 560.8987 411.4882)" class="st0 st6 st7">100 110 120 125</text>
<text id="XMLID_26_" transform="matrix(1 0 0 1 760.3537 191.204)" class="st0 st6 st7">70 80 (94*)</text>
<text id="XMLID_24_" transform="matrix(1 0 0 1 756.0644 241.6981)" class="st0 st6 st7">80 94 (106*)</text>
<text id="XMLID_23_" transform="matrix(1 0 0 1 760.6635 295.0507)" class="st0 st6 st7">44 54 (64*)</text>
<text id="XMLID_22_" transform="matrix(1 0 0 1 760.7739 345.9979)" class="st0 st6 st7">30 40 (46*)</text>
<text id="XMLID_21_" transform="matrix(1 0 0 1 744.674 411.4882)" class="st0 st6 st7">100 110 120 125</text>
<text id="XMLID_58_" transform="matrix(1 0 0 1 946.8687 191.204)" class="st0 st6 st7">72 82 (96*)</text>
<text id="XMLID_57_" transform="matrix(1 0 0 1 945.469 241.6981)" class="st0 st6 st7">82 96 (112*)</text>
<text id="XMLID_56_" transform="matrix(1 0 0 1 945.3386 295.0507)" class="st0 st6 st7">46 56 (66*)</text>
<text id="XMLID_55_" transform="matrix(1 0 0 1 946.0486 345.9979)" class="st0 st6 st7">32 42 (46*)</text>
<text id="XMLID_54_" transform="matrix(1 0 0 1 928.6289 411.4882)" class="st0 st6 st7">100 110 120 125</text>
<text id="XMLID_53_" transform="matrix(1 0 0 1 1118.5558 191.204)" class="st0 st6 st7">78 88 (100*)</text>
<text id="XMLID_52_" transform="matrix(1 0 0 1 1121.8859 241.6981)" class="st0 st6 st7">86 98 (114*)</text>
<text id="XMLID_51_" transform="matrix(1 0 0 1 1123.2953 295.0507)" class="st0 st6 st7">48 58 (68*)</text>
<text id="XMLID_50_" transform="matrix(1 0 0 1 1123.6652 345.9979)" class="st0 st6 st7">32 42 (48*)</text>
<text id="XMLID_49_" transform="matrix(1 0 0 1 1125.5653 411.4882)" class="st0 st6 st7">100 110 120</text>
<text id="XMLID_39_" transform="matrix(1 0 0 1 1474.7236 191.204)" class="st0 st6 st7">82 92 (108*)</text>
<text id="XMLID_38_" transform="matrix(1 0 0 1 1470.4038 241.6981)" class="st0 st6 st7">90 102 (122*)</text>
<text id="XMLID_36_" transform="matrix(1 0 0 1 1476.9629 295.0507)" class="st0 st6 st7">48 60 (70*)</text>
<text id="XMLID_35_" transform="matrix(1 0 0 1 1477.1729 345.9979)" class="st0 st6 st7">34 44 (50*)</text>
<text id="XMLID_32_" transform="matrix(1 0 0 1 1480.7734 411.4882)" class="st0 st6 st7">100 110 120</text>
<text id="XMLID_37_" transform="matrix(1 0 0 1 1657.7645 191.204)" class="st0 st6 st7">88 104 (120*)</text>
<text id="XMLID_34_" transform="matrix(1 0 0 1 1658.9945 241.6981)" class="st0 st6 st7">92 108 (126*)</text>
<text id="XMLID_33_" transform="matrix(1 0 0 1 1664.0438 295.0507)" class="st0 st6 st7">50  62 (72*)</text>
<text id="XMLID_25_" transform="matrix(1 0 0 1 1666.4833 345.9979)" class="st0 st6 st7">36 48 (54*)</text>
<text id="XMLID_3_" transform="matrix(1 0 0 1 1668.994 411.4882)" class="st0 st6 st7">100 110 120</text>
<g id="XMLID_59_">
	<text transform="matrix(1 0 0 1 1860.7332 191.204)" class="st0 st6 st7">96 116 (130*)</text>
</g>
<g id="XMLID_43_">
	<text transform="matrix(1 0 0 1 1862.2332 241.6981)" class="st0 st6 st7">98 118 (132*)</text>
</g>
<g id="XMLID_42_">
	<text transform="matrix(1 0 0 1 1866.5325 295.0507)" class="st0 st6 st7">54 66 (78*)</text>
</g>
<g id="XMLID_41_">
	<text transform="matrix(1 0 0 1 1865.012 345.9979)" class="st0 st6 st7">40 50 (58*)</text>
</g>
<g id="XMLID_40_">
	<text transform="matrix(1 0 0 1 1868.6326 411.4882)" class="st0 st6 st7">100 110 120</text>
</g>
<text id="XMLID_5_" transform="matrix(1 0 0 1 117.1596 295.339)" class="st0 st1 st5">Coxa</text>
<text id="XMLID_4_" transform="matrix(1 0 0 1 102.9171 241.9865)" class="st0 st1 st5">quadril</text>
<text id="XMLID_7_" transform="matrix(1 0 0 1 63.8026 398.5011)"><tspan x="0" y="0" class="st0 st1 st5">Comprimento</tspan><tspan x="30" y="26.6" class="st0 st1 st5">de Perna</tspan></text>
<text id="XMLID_6_" transform="matrix(1 0 0 1 80.8117 346.2863)" class="st0 st1 st5">Panturrilha</text>
<text id="XMLID_11_" transform="matrix(1 0 0 1 267.3293 495.6753)" class="st0 st6 st8">*a calça OFFlimits contém uma elasticidade que favorece a ampliacação em 10cm além do indicado da tabela, mantendo o formato do seu corpo</text>
<text id="XMLID_12_" transform="matrix(1 0 0 1 76.3817 150.4839)" class="st0 st6 st9">Medidas em cm</text>
<text transform="matrix(1 0 0 1 290.9873 132.6719)" class="st0 st10 st11">38</text>
<text transform="matrix(1 0 0 1 447.9873 132.6719)" class="st0 st10 st11">40</text>
<text transform="matrix(1 0 0 1 624.34 132.6719)" class="st0 st10 st11">42</text>
<text transform="matrix(1 0 0 1 807.4636 132.6719)" class="st0 st10 st11">44</text>
<text transform="matrix(1 0 0 1 991.6892 132.6719)" class="st0 st10 st11">46</text>
<text transform="matrix(1 0 0 1 1169.4561 132.6719)" class="st0 st10 st11">48</text>
<g>
	<text id="XMLID_48_" transform="matrix(1 0 0 1 1290.9276 191.204)" class="st0 st6 st7">80 90 (106*)</text>
	<text id="XMLID_47_" transform="matrix(1 0 0 1 1291.3676 241.6981)" class="st0 st6 st7">88 100 (112*)</text>
	<text id="XMLID_46_" transform="matrix(1 0 0 1 1295.9969 295.0507)" class="st0 st6 st7">48 60 (68*)</text>
	<text id="XMLID_45_" transform="matrix(1 0 0 1 1297.3065 345.9979)" class="st0 st6 st7">32 42 (50*)</text>
	<text id="XMLID_44_" transform="matrix(1 0 0 1 1299.4672 411.4882)" class="st0 st6 st7">100 110 120</text>
	<g>
		<text transform="matrix(1 0 0 1 1342.9471 132.6719)" class="st0 st10 st11">50</text>
	</g>
</g>
<text transform="matrix(1 0 0 1 1525.416 132.6719)" class="st0 st10 st11">52</text>
<text transform="matrix(1 0 0 1 1712.8846 132.6719)" class="st0 st10 st11">54</text>
<text transform="matrix(1 0 0 1 1912.7943 132.6719)" class="st0 st10 st11">56</text>
</svg>
