<?xml version="1.0" encoding="utf-8"?>
<!-- Generator: Adobe Illustrator 24.1.1, SVG Export Plug-In . SVG Version: 6.00 Build 0)  -->
<svg version="1.1" id="Camada_1" xmlns="http://www.w3.org/2000/svg" xmlns:xlink="http://www.w3.org/1999/xlink" x="0px" y="0px"
	 viewBox="0 0 1080 1080" style="enable-background:new 0 0 1080 1080;" xml:space="preserve" width="64" height="64">
<style type="text/css">
	.st0{fill:#FC473B;}
	.st1{fill:#2B3656;}
	.st2{fill:#FFFFFF;}
	.st3{fill:#F2F2F2;}
	.st4{fill:#035B9A;}
	.st5{fill:none;}
</style>
<path id="XMLID_143_" class="st0" d="M731.2,414.6c0,73.7-59.7,133.4-133.4,133.4c-73.7,0-133.4-59.7-133.4-133.4
	c0-73.7,59.7-133.4,133.4-133.4C671.5,281.2,731.2,340.9,731.2,414.6"/>
<g id="XMLID_140_">
	<g>
		<path id="XMLID_43_" class="st1" d="M597.8,553.7c-76.7,0-139.1-62.4-139.1-139.1c0-76.7,62.4-139.1,139.1-139.1
			c76.7,0,139.1,62.4,139.1,139.1C736.9,491.3,674.5,553.7,597.8,553.7 M597.8,283.1c-72.5,0-131.5,59-131.5,131.5
			s59,131.5,131.5,131.5c72.5,0,131.5-59,131.5-131.5S670.3,283.1,597.8,283.1"/>
	</g>
</g>
<g id="XMLID_137_">
	<path id="XMLID_93_" class="st2" d="M485.1,427.1v-0.2c0-24.7,19.5-45,46.3-45c26.8,0,46.1,20,46.1,44.7v0.2
		c0,24.7-19.5,45-46.3,45C504.4,471.9,485.1,451.8,485.1,427.1 M557.6,427.1v-0.2c0-14.9-10.9-27.3-26.3-27.3
		c-15.4,0-26.1,12.2-26.1,27.1v0.2c0,14.9,10.9,27.3,26.3,27.3C546.9,454.2,557.6,442,557.6,427.1"/>
</g>
<g id="XMLID_132_">
	<path id="XMLID_86_" class="st3" d="M531.2,473.4c-27.2,0-47.7-19.9-47.7-46.3v-0.2c0-12.5,4.8-24.2,13.6-32.9
		c8.9-8.8,21.1-13.7,34.3-13.7c27.2,0,47.7,19.9,47.7,46.3v0.2c0,12.5-4.8,24.2-13.6,32.9C556.7,468.6,544.5,473.4,531.2,473.4
		 M531.5,383.4c-25.1,0-44.8,19.1-44.8,43.4v0.2c0,24.6,19.1,43.2,44.5,43.2c25.1,0,44.8-19.1,44.8-43.4v-0.2
		C576,402,556.9,383.4,531.5,383.4 M531.5,455.8c-15.6,0-27.9-12.7-27.9-28.9v-0.2c0-16.3,11.9-28.6,27.7-28.6
		c15.6,0,27.9,12.7,27.9,28.9v0.2C559.1,443.5,547.2,455.8,531.5,455.8 M531.2,401.1c-14,0-24.5,11-24.5,25.5v0.2
		c0,14.7,10.7,25.8,24.8,25.8c14,0,24.5-11,24.5-25.5v-0.2C556,412.2,545.4,401.1,531.2,401.1"/>
</g>
<polygon id="XMLID_131_" class="st3" points="717.5,400.8 717.5,383.4 654.7,383.4 651.3,383.4 582.2,383.4 582.2,470.4 
	601.3,470.4 601.3,436.7 638.3,436.7 638.3,419.3 601.3,419.3 601.3,400.8 651.3,400.8 651.3,470.4 670.4,470.4 670.4,436.7 
	711.9,436.7 711.9,419.3 670.4,419.3 670.4,400.8 "/>
<path id="XMLID_130_" class="st1" d="M496.5,537.6c1.8,1.5,4.1,2.4,6.9,2.7c2.6,0.4,5,0.1,7.1-0.8c2.1-0.9,3.3-2.3,3.7-4.2
	c0.3-1.7-0.4-3.4-2.2-4.8c-1.8-1.5-4.1-2.4-6.7-2.8c-2.8-0.3-5.2-0.1-7.3,0.8c-2.1,0.9-3.3,2.2-3.7,3.9
	C494,534.4,494.7,536.1,496.5,537.6"/>
<path id="XMLID_125_" class="st1" d="M733.6,540.3c2.6,0.4,5,0.1,7.1-0.8c2.1-0.9,3.3-2.3,3.7-4.2c0.3-1.7-0.4-3.4-2.2-4.8
	c-1.8-1.5-4.1-2.4-6.7-2.8c-2.8-0.3-5.2-0.1-7.3,0.8c-2.1,0.9-3.3,2.2-3.7,3.9c-0.4,1.9,0.4,3.6,2.2,5.1
	C728.4,539,730.8,540,733.6,540.3"/>
<path id="XMLID_117_" class="st2" d="M855.1,622.9l0.2-0.1c0.4-1.5,0.6-3.1,0.6-4.8c-0.1-0.1-0.3-0.2-0.4-0.3
	C855.5,619.5,855.4,621.2,855.1,622.9"/>
<path id="XMLID_116_" class="st4" d="M855.5,617.7c0.1,0.1,0.3,0.2,0.4,0.3c0.1-4.8-1-10.2-2.1-14.4c-0.1,0-0.1,0-0.2-0.1
	L855.5,617.7z"/>
<path class="st1" d="M953.3,486.4c-0.7-1.9-1.7-3.7-2.9-5.2c-2.8-3-6.6-5.3-11.5-7.1c-4.2-1.4-9.7-2.3-16.5-2.6
	c-6.8-0.3-15.3,0.8-25.4,3.4c-6.8,1.9-14.5,4.1-22.9,6.6c-8.5,2.4-17.2,5-26.3,7.6c-9.1,2.6-18.3,5.2-27.6,7.6
	c-9.3,2.4-18.5,4.6-27.4,6.6c1.4-7,2.7-13.1,3.9-18.3c1.2-5.2,2.3-9.3,3.1-12.3c0.5-1.6,0.6-3.2,0.1-4.8c-0.4-1.7-1.4-3-2.7-4.1
	c-2.6-2.4-5.4-4-8.3-4.6c-2.9-0.6-5.3-0.9-7.2-0.9c-2.4,0-4.1,1.1-5,3.4c-1.9,6.1-3.8,13.1-5.6,21c-1.8,7.9-3.5,16.2-5.1,25.1
	c-3,0.4-5.9,0.7-8.8,0.9c-2.9,0.3-5.5,0.4-8,0.4c-8.6,0-15.7-0.9-21.5-2.8c-5.8-1.8-10.4-4.1-13.9-6.9c-3.5-2.8-5.9-6-7.3-9.7
	c-1.4-3.7-1.9-7.3-1.6-11c0.2-1.4-0.3-2.6-1.3-3.5c-1-1-2.4-1.4-3.9-1.4h-2.6c-3,0.2-5.6,0.9-7.9,2.1c-2.3,1.2-4.1,2.8-5.4,4.8
	c-1.3,2-2.1,4.2-2.4,6.6c-0.3,2.4,0.1,4.8,1.2,7.2c1.6,3.5,4.1,7.1,7.6,10.7c3.5,3.7,8.4,6.8,14.7,9.4c6.3,2.6,14.2,4.5,23.8,5.5
	c9.6,1,21.4,0.6,35.4-1.3c-1.9,13.1-3.3,26.2-4.1,39.2c-0.4,7.1-0.6,13.8-0.5,20.2c0,0,0,0,0,0c0,0,0,0,0,0c-0.9,3.5-2,7.5-3.5,12.1
	c-1.7,5.4-3.7,10.6-5.8,15.5c-2.1,4.9-4.3,9-6.6,12.3c-2.3,3.3-4.5,4.8-6.8,4.5c-1.6-0.2-2.6-1.6-3.1-4.3c-0.5-2.7-0.6-6.1-0.3-10.2
	c0.3-4.1,1-8.6,1.8-13.6c0.9-5,1.8-9.9,2.7-14.8c1-4.9,2-9.4,3-13.6c1-4.2,1.8-7.5,2.4-10c0.3-1.4,0.3-2.8-0.3-4.1
	c-0.5-1.3-1.3-2.4-2.4-3.3c-2.8-1.9-5.9-3.2-9.3-3.9c-3.4-0.7-6.3-1-8.8-1c-2.8-0.3-4.5,0.9-5,3.7c-3.1,11-5.4,21.4-6.8,31
	c0.2-0.7,0.5-1.3,0.7-1.9c0.1-0.3,0.2-0.6,0.4-0.8c-0.2,0.2-0.3,0.5-0.4,0.8c-0.2,0.6-0.5,1.2-0.7,1.9c0,0,0,0,0,0
	c-0.3,1-0.7,2.1-1.1,3.3c-0.7,2.1-1.6,4.5-2.6,7.1c-1.1,2.6-2.2,5.3-3.4,8c-1.2,2.7-2.4,5.3-3.7,7.7c-1.6,2.8-3.2,5.5-5,8.1
	c-1.4,2.3-3,4.6-4.7,6.9c-1.7,2.4-3.6,4.5-5.5,6.4c-1.7,1.7-3.4,3.1-4.8,4.2c-1.5,1-2.9,1.4-4.3,1c-1-0.2-1.6-1.4-1.6-3.7
	c0-2.3,0.3-5.2,1-8.9c0.7-3.7,1.7-7.8,3-12.3c1.3-4.5,2.7-9.2,4.3-13.9c3.5-11,7.9-23.6,13.4-37.7c1.6-5.6,2.1-10.2,1.6-13.8
	c-0.5-3.6-1.5-6.5-2.9-8.8c-1.6-2.6-3.5-4.6-5.8-6c-3.7-2.1-7.9-2-12.7,0.3c-4.8,2.3-9.8,5.7-14.9,10.3c-5.2,4.6-10.3,10-15.3,16.1
	c-5.1,6.1-9.7,12.1-13.9,17.8c-4.2,5.8-7.8,10.8-10.9,15.2c-3.1,4.4-5.1,7.2-6.2,8.4c-1.6,1.9-2.6,2.4-3,1.3c-0.4-1-0.6-2.8-0.4-5.4
	c0.2-2.5,0.5-5.5,1-9c0.5-3.5,1-6.8,1.6-10c0.3-3.1,0.5-6.4,0.4-9.8c-0.1-3.4-0.7-6.5-2-9.3c-1.2-2.8-3.2-5.1-5.9-6.9
	c-2.7-1.8-6.4-2.8-11.1-2.8c-3.7,0-7.5,1.7-11.4,5.1c-3.9,3.4-7.7,7.6-11.4,12.4c-3.7,4.9-7,10-10.1,15.5c-3.1,5.4-5.6,10-7.7,13.9
	c1.2-10.1,2.9-19.1,5-26.9c2.1-7.8,3.8-13.8,5.2-18.2c0.5-1.6,0.5-3.1,0-4.6c-0.5-1.5-1.5-2.7-2.9-3.5c-2.8-1.7-5.9-2.8-9.3-3.3
	c-3.4-0.4-6.3-0.7-8.8-0.7c-2.6,0-4.4,1.3-5.2,3.9c-0.9,2.6-2,6.3-3.4,11c-1.4,4.7-2.7,9.9-3.8,15.5c-1.1,5.4-2,11-2.7,16.9
	c0.3-1.1,0.5-2.1,0.7-3c0.2-0.7,0.6-1.1,1.2-1.3c-0.6,0.2-1,0.6-1.2,1.3c-0.2,1-0.5,2-0.7,3c0,0.2,0,0.3-0.1,0.5
	c0-0.2,0-0.3,0.1-0.5c-0.8,3.2-1.9,6.8-3.2,10.8c-1.7,5.4-3.7,10.6-5.8,15.5c-2.1,4.9-4.3,9-6.6,12.3c-2.3,3.3-4.5,4.8-6.8,4.5
	c-1.6-0.2-2.6-1.6-3.1-4.3c-0.5-2.7-0.6-6.1-0.3-10.2c0.3-4.1,1-8.6,1.8-13.6c0.9-5,1.8-9.9,2.7-14.8c1-4.9,2-9.4,3-13.6
	c1-4.2,1.8-7.5,2.4-10c0.3-1.4,0.3-2.8-0.3-4.1c-0.5-1.3-1.3-2.4-2.4-3.3c-2.8-1.9-5.9-3.2-9.3-3.9c-3.4-0.7-6.3-1-8.8-1
	c-2.8-0.3-4.5,0.9-5,3.7c-3.7,12.9-6.2,24.9-7.5,35.9c-1.3,11-1.4,20.5-0.3,28.4c1.1,7.9,3.4,14.2,6.9,18.7
	c3.5,4.5,8.1,6.9,13.9,7.1c3.5,0.2,6.8-0.8,9.8-3c3.1-2.2,5.8-5,8.4-8.5c2.5-3.5,4.8-7.4,6.8-11.7c1.6-3.3,2.9-6.6,4.1-9.9
	c0,0,0,0,0,0c0.1-0.3,0.2-0.7,0.4-1c-0.1,0.3-0.2,0.7-0.4,1c0.7,2.8,1.6,5.5,2.8,7.9c2.1,4.4,5.3,7.7,9.7,10
	c0.7,0.2,1.4,0.4,2.1,0.8c1.7,0.7,3.3,1,4.7,0.8c1-0.2,2-0.5,2.7-0.9c0.8-0.4,1.4-0.9,2-1.4c0.7-0.7,1.1-1.4,1.3-2.1
	c0.7-2.1,2-5.7,4.1-10.7c2-5.1,4.4-10.3,7.2-15.8c2.8-5.5,5.9-10.7,9.3-15.6c3.4-4.9,6.9-8.2,10.3-10c0.3-0.2,0.7-0.1,1,0.3
	c0.5,0.5,0.3,2.5-0.5,6c-0.5,1.7-1.1,5.1-1.7,10c-0.6,4.9-0.6,10,0.1,15.2c0.7,5.2,2.4,9.8,5.1,13.6c2.7,3.8,7.1,5.6,13.2,5.2
	c2.1,0,4.4-0.6,6.8-1.8c2.1-1,4.4-2.7,6.9-4.8c2.5-2.2,5.3-5.5,8.3-9.8c1.7-2.8,4.1-6.2,6.9-10.2c2.9-4,5.9-8.2,9.2-12.6
	c3.2-4.4,6.6-8.7,10-13.1c3.4-4.4,6.6-8.3,9.7-11.7c3.1-3.4,5.7-6.1,8-8c2.3-1.9,4-2.8,5.2-2.6c-8,17.8-14.1,34.1-18.3,48.7
	c-1.7,6.3-3.2,12.5-4.3,18.6c-1.1,6.1-1.6,11.7-1.3,16.6c0.3,5,1.3,9.2,3.1,12.7c1.8,3.5,4.8,5.8,8.8,6.8c4,1,7.9,1,11.7-0.3
	c3.8-1.2,7.2-3.1,10.3-5.5c3.1-2.4,6-5.2,8.6-8.4c2.6-3.1,4.8-6.1,6.7-8.9c1.8-2.8,3.3-5.2,4.3-7.2c1-2,1.7-3.1,1.8-3.3
	c1.3-2.4,2.4-4.9,3.5-7.4c0.1,2.2,0.3,4.2,0.6,6.2c1.1,7.9,3.4,14.2,6.9,18.7c3.5,4.5,8.1,6.9,13.9,7.1c3.5,0.2,6.8-0.8,9.8-3
	c3.1-2.2,5.9-5,8.4-8.5c2.5-3.5,4.8-7.4,6.8-11.7c2-4.3,3.7-8.5,5.1-12.7c0-0.1,0-0.1,0.1-0.2c1.1,8.1,2.6,14.6,4.6,19.4
	c2.6,6.3,5.3,10.9,8.1,13.9c3.1,3.3,6.6,5.2,10.5,5.5c3.5,0.2,6.8-1,9.8-3.4c3.1-2.4,5.9-5.6,8.5-9.4c2.6-3.8,5-8.1,7.1-12.8
	c2.1-4.7,3.9-9.3,5.5-13.8c1.6-4.5,2.8-8.5,3.8-12.1c0.5-2,1-3.7,1.3-5.1c0,0,0,0.1,0,0.1c0.9,2.3,2.1,4.9,3.6,7.8
	c1.5,2.9,3.3,5.9,5.5,8.9c0.6,0.9,1.2,1.9,1.9,3c-6.5,1.7-11.5,4.7-15.1,9.1c-3.6,4.3-5.5,8.8-5.8,13.2c-0.3,4.5,0.5,8,2.4,10.6
	c1.9,2.6,4.1,4.5,6.6,5.7c2.8,1.5,6,2.6,9.8,3c4.8,0.2,9.1-0.9,13-3.1c3.9-2.3,7.1-5.4,9.5-9.4c0.9-1.4,1.6-2.9,2.1-4.5
	c0.5-1.6,0.8-3.2,1.2-4.8c0,0,0-0.1,0-0.1l0,0c0.3-1.7,0.4-3.4,0.4-5.2l-1.9-14.2c-0.8-2.3-1.5-4.5-2.3-6.5c-0.8-2-1.5-3.7-2.3-5.1
	l-0.1-0.1l0,0l-2.3-4.5c-1.9-3.6-3.4-6.9-4.5-10c-1.2-3.1-2.1-5.7-2.9-7.9c-0.8-2.6-1.3-4.9-1.6-6.7c-0.3-4,0-7,0.9-8.8
	c0.9-1.9,2-3.3,3.1-4.3c1.2-1,2.2-1.9,3.1-2.6c0.9-0.7,1.2-1.9,0.7-3.6c-0.8-2.2-2.1-3.7-3.8-4.7c-1.8-0.9-3.7-1.5-5.7-1.9
	c-2.3-0.3-4.9-0.2-7.7,0.5c-2.6,0.6-4.8,1.7-6.6,3.1c-1.8,1.5-3.2,3.1-4.2,5c-1,1.9-1.7,3.9-2.1,6.2c-0.4,2.2-0.6,4.5-0.6,6.9
	c0,4.8,0.8,10.2,2.4,15.9l0,0c0,0,0,0,0,0c0,0,0,0,0,0l0,0c0.1,0.5,0.3,1,0.4,1.5c0.3,1,0.7,2,1.1,3c-0.4-1-0.7-2.1-1.1-3
	c-0.1-0.5-0.3-1-0.4-1.5c-1-0.2-1.7,0.2-2.2,1.4c-0.7,2.1-2,5.9-3.8,11.4c-1.8,5.5-4,11.1-6.4,16.8c-2.4,5.7-5,10.7-7.6,15.1
	c-2.6,4.4-5.1,6.5-7.3,6.5c-3,0-5.2-1.7-6.7-5.1c-1.5-3.4-2.4-7.9-2.9-13.6c-0.4-5.7-0.4-12.2,0-19.7c0.4-7.4,1.2-15.3,2.2-23.6
	c1-8.3,2.3-16.7,3.7-25.1c1.4-8.5,2.9-16.5,4.5-24.2c19.4-3.7,37.3-7.6,53.7-11.8c16.4-4.2,30.6-7.6,42.7-10.1
	c12.1-2.5,21.5-3.8,28.4-3.8c6.9,0,10.6,2.4,11.1,7.1c0.2,1.9,0.8,3.3,1.8,4.2c1,0.9,2.1,1.5,3.1,1.8c1.2,0.5,2.6,0.8,4.2,0.8
	c3.5,0.2,6.7-0.3,9.6-1.3c2.9-1,5-2.4,6.4-3.9c1.4-1.9,2.1-3.8,2.2-5.6C954.1,489.7,953.8,488,953.3,486.4z M528.9,597.3
	c-0.5-5.2-0.4-10.7,0.2-16.5C528.4,586.5,528.4,592.1,528.9,597.3c0.1,1.5,0.4,2.9,0.6,4.3C529.2,600.2,529,598.8,528.9,597.3z
	 M535.3,577C535.3,577,535.2,577,535.3,577C535.2,577,535.3,577,535.3,577z M531.1,574.9c0.6-0.2,1.3-0.1,2,0.3
	c0.2,0.2,0.6,0.4,1.3,0.8c0,0,0,0,0,0c-0.7-0.3-1.1-0.6-1.3-0.8C532.4,574.8,531.7,574.7,531.1,574.9
	C531.1,574.9,531.1,574.9,531.1,574.9z M532.5,596.4c0.2-0.5,0.3-1,0.5-1.5C532.9,595.4,532.7,595.9,532.5,596.4z M714.6,575.2
	c0.3,0.1,0.4,0.2,0.5,0.3C715.1,575.4,714.9,575.3,714.6,575.2z M712.9,574.9c0.3-0.1,0.6-0.1,0.9-0.1
	C713.5,574.8,713.2,574.8,712.9,574.9c-0.3,0.1-0.6,0.2-0.8,0.5C712.3,575.1,712.6,575,712.9,574.9z M710.1,603.8
	c0.1-0.1,0.1-0.2,0.2-0.3c1-2.4,1.8-4.6,2.6-6.8c-0.8,2.2-1.6,4.5-2.6,6.8C710.2,603.6,710.2,603.7,710.1,603.8z M715.4,589.1
	c0.2-0.8,0.5-1.6,0.7-2.4c0.3-1.3,0.6-2.4,0.9-3.4c-0.3,1-0.6,2.1-0.9,3.4C715.8,587.4,715.6,588.2,715.4,589.1z M717.5,580.8
	c0.4-1.9-0.1-3.6-1.6-4.9c-0.3-0.1-0.4-0.2-0.5-0.3c0.1,0.1,0.3,0.2,0.5,0.3C717.4,577.3,717.9,578.9,717.5,580.8z M763.2,575.2
	C763.2,575.2,763.2,575.2,763.2,575.2L763.2,575.2C763.2,575.2,763.2,575.2,763.2,575.2z M759.9,587.6c0.1,1.9,0.2,3.7,0.3,5.5
	c0.2,2.1,0.4,4.2,0.6,6.1c-0.2-2-0.5-4-0.6-6.1C760.1,591.3,760,589.4,759.9,587.6z M765.3,585.8c0.4-1.8,0.6-3.3,0.7-4.6
	c0.1-0.5,0.1-0.9,0.1-1.4c0,0.4,0,0.9-0.1,1.4C765.9,582.4,765.7,584,765.3,585.8z M851.1,624.7l-6.4,2.8v-27.2l-1.8-3.6l1.8,3.6
	v27.2L851.1,624.7z M842.9,595.2l-0.6,0.4v0L842.9,595.2z M835.1,613.5c0.6,3.9,0.5,7.4-0.3,10.6c-0.9,3.2-2.2,5.5-4.1,7.1
	c-1.1,0.6-2.1,1.1-3,1.4c-0.8,0.3-1.7,0.5-2.8,0.5c-1.1,0-2.1-0.4-3-1.2c-0.6-0.6-1.2-1.3-1.6-2.1c-0.3-0.8-0.6-1.7-0.8-2.7
	c-0.2-1,0-2.3,0.6-3.8c0.8-2,2.5-4,5.2-5.8C827.9,615.6,831.2,614.3,835.1,613.5z M821,578c-0.3-0.9-0.8-1.7-1.6-2.5
	c-0.3-0.2-0.6-0.3-0.8-0.5c0.2,0.1,0.5,0.3,0.8,0.5C820.2,576.3,820.8,577.1,821,578z M821,580.8c0.1-0.4,0.1-0.8,0.2-1.1
	C821.2,580,821.1,580.4,821,580.8c-0.2,0.7-0.4,1.6-0.6,2.6c0,0,0,0,0,0C820.7,582.3,820.9,581.4,821,580.8z"/>
<g id="XMLID_112_">
	<g>
		<path id="XMLID_40_" class="st1" d="M648.5,678.1v5.6h-1.3v-29.9h1.3v15c1.4-3.4,4.6-6.2,9.1-6.2c5.6,0,10.2,4.5,10.2,10.8v0.1
			c0,6.3-4.6,10.8-10.2,10.8C653.1,684.2,649.9,681.5,648.5,678.1 M666.5,673.4L666.5,673.4c0-5.5-3.8-9.6-8.9-9.6
			c-5.1,0-9.1,4.2-9.1,9.5v0.1c0,5.3,4.1,9.5,9.1,9.5C662.7,682.9,666.5,679,666.5,673.4"/>
	</g>
</g>
<path id="XMLID_111_" class="st1" d="M671.3,689.3l0.5-1.1c1,0.5,2.2,0.9,3.5,0.9c2.3,0,3.6-1.1,5.6-5.5L671,663h1.5l9.1,19.2
	l8.3-19.2h1.4l-9.3,21.2c-2.2,4.9-3.9,6.1-6.7,6.1C673.7,690.4,672.4,689.9,671.3,689.3"/>
<path id="XMLID_110_" class="st1" d="M708.6,663h1.3v4.6c0.9-2.4,3.4-5.1,7-5.1c4.1,0,6.4,2.5,7.3,5.5c1-2.7,3.6-5.5,7.4-5.5
	c4.7,0,7.8,3.2,7.8,8.8v12.3h-1.3v-12.2c0-5-2.6-7.7-6.6-7.7c-3.5,0-6.9,3.2-6.9,7.9v12.1h-1.3v-12.3c0-4.9-2.7-7.7-6.6-7.7
	c-3.6,0-6.9,3.4-6.9,7.9v12h-1.3V663z"/>
<g id="XMLID_107_">
	<g>
		<path id="XMLID_37_" class="st1" d="M745.2,677.9L745.2,677.9c0-4.4,3.9-6.7,9.1-6.7c2.9,0,5.4,0.5,7.4,1.1v-1.4
			c0-4.7-2.8-7-7.4-7c-2.5,0-4.7,0.7-6.7,1.7l-0.5-1.1c2.3-1.1,4.6-1.8,7.3-1.8c2.8,0,5,0.7,6.6,2.3c1.3,1.4,2,3.3,2,5.9v12.9h-1.3
			v-4.3c-1.1,2.3-3.9,4.8-8.7,4.8C749,684.2,745.2,682,745.2,677.9 M761.7,676.1v-2.5c-2-0.7-4.4-1.1-7.5-1.1
			c-4.6,0-7.7,1.9-7.7,5.3v0.1c0,3.4,3.1,5.2,6.5,5.2C758.1,682.9,761.7,679.7,761.7,676.1"/>
	</g>
</g>
<g id="XMLID_104_">
	<g>
		<path id="XMLID_34_" class="st1" d="M770.2,663h1.3v5.7c1.4-3.4,4.6-6.2,9.1-6.2c5.6,0,10.2,4.5,10.2,10.8v0.1
			c0,6.3-4.6,10.8-10.2,10.8c-4.5,0-7.7-2.7-9.1-6.1v12.2h-1.3V663z M789.5,673.4L789.5,673.4c0-5.5-3.8-9.6-8.9-9.6
			c-5.1,0-9.1,4.2-9.1,9.5v0.1c0,5.3,4.1,9.5,9.1,9.5C785.7,682.9,789.5,679,789.5,673.4"/>
	</g>
</g>
<path id="XMLID_103_" class="st1" d="M795.2,681l0.8-1c2.3,1.8,5,2.8,7.7,2.8c3.3,0,5.9-1.8,5.9-4.3v-0.1c0-2.9-3.1-3.8-6.3-4.7
	c-3.9-1.1-7.2-2.2-7.2-5.6v-0.1c0-3.1,2.8-5.4,7-5.4c2.4,0,5.1,0.8,7.3,2.3l-0.7,1.1c-2-1.4-4.4-2.2-6.6-2.2c-3.4,0-5.7,1.8-5.7,4.1
	v0.1c0,2.6,2.9,3.5,6.3,4.5c3.8,1,7.2,2.2,7.2,5.8v0.1c0,3.4-3.2,5.7-7.3,5.7C800.7,684,797.5,682.9,795.2,681"/>
<path id="XMLID_102_" class="st0" d="M375.9,621.6c8.3,2.2,52.3,13.9,60.3,16.6c8,2.7,15.8,5.5,23.6,8.4c7.8,2.9,15.5,5.9,23.3,8.8
	c15.4,5.9,30.8,12,46.2,17.7c15.4,5.8,30.8,11.4,46.3,16.6c15.5,5.2,31.1,10,46.8,14.1c15.7,4.1,31.5,7.6,47.4,10
	c15.9,2.3,31.9,3.8,47.7,3.3c2-0.1,4-0.1,5.9-0.3c2-0.1,3.9-0.2,5.9-0.4c2-0.1,3.9-0.4,5.9-0.6c1.9-0.2,4-0.5,6-0.7
	c8.1-1,16-2.3,23.8-3.9c7.8-1.6,15.6-3.6,23.2-6c7.6-2.4,15.1-5.1,22.3-8.5c14.4-6.6,27.9-15.2,39.2-26.3
	c5.6-5.5,10.8-11.6,15.3-18.2c1.1-1.6,2.1-3.4,3.2-5c1-1.7,2-3.5,3-5.2c1.8-3.6,3.6-7.2,5.1-10.9c3.1-7.4,11-39.4,11-35.3
	c0,4.2-0.1,8.3-0.5,12.5c-0.8,8.3-2.3,16.7-4.7,24.8c-4.8,16.3-13.2,31.7-24.6,44.7c-11.4,13-25.5,23.5-40.7,31.6
	c-7.6,4-15.5,7.5-23.5,10.5c-8,3-16.2,5.5-24.5,7.6c-8.3,2.1-16.6,3.7-24.9,5.1c-2.1,0.3-4.1,0.7-6.3,1c-2.1,0.3-4.3,0.6-6.4,0.8
	c-4.3,0.5-8.6,0.8-12.9,1.1c-17.2,0.9-34.3-0.2-51.2-2.5c-33.7-4.6-66.2-13.6-97.9-24.3c-15.8-5.4-31.5-11.1-47-17.1
	c-15.5-6-30.9-12.2-46.1-18.5c-15.3-6.3-30.5-12.4-45.8-18.1c-7.6-2.8-15.3-5.5-22.9-7.7c-1.9-0.5-37.4-9.9-39.3-10.3"/>
<g>
	<path class="st5" d="M321.7,626.8c-17.3-3.2-32.8-5.4-46.4-6.6c-13.6-1.2-24.5-1.7-32.5-1.7c-14.5-0.2-27.5,1.5-38.8,5.2
		c-4.8,1.6-9.6,3.7-14.4,6.2c-4.7,2.5-9,5.7-12.8,9.5c-3.8,3.8-7,8.4-9.5,13.7c-2.5,5.3-3.9,11.5-4.2,18.7
		c-0.2,6.2,1.2,11.7,4.2,16.3c3,4.6,7,8.6,12.1,11.9c5.1,3.3,10.9,6,17.5,8c6.6,2,13.4,3.4,20.6,4.3c10.8,1.4,21.7,1.6,32.7,0.5
		c11-1,21.5-3.1,31.7-6.2c10.2-3.1,19.7-7.2,28.7-12.1c9-5,17.2-10.6,24.6-16.8c6.9-6,13.2-12.5,18.7-19.4
		c5.5-6.9,10.3-14,14.2-21.1c-7.8-1.8-15.6-3.6-23.2-5.4C337.2,630.1,329.5,628.4,321.7,626.8z"/>
	<path class="st1" d="M638,259.1c-3.9-2-7.9-4-11.9-5.7c-8.1-3.5-16.5-6.3-25.1-8.5c-9.8-2.4-19.8-3.8-29.6-4
		c-7.5-0.2-14.9,0.2-22.1,1.2c-16.8,2.4-32.3,8.2-46,16c-6.9,3.9-13.3,8.3-19.3,13c-6,4.8-11.7,9.9-17,15.3
		c-5.3,5.3-10.2,11-14.9,16.8c-1.2,1.4-2.3,2.8-3.5,4.4c-1.2,1.5-2.3,3-3.4,4.6c-2.2,3.1-4.3,6.2-6.2,9.5c-0.1,0.1-0.1,0.2-0.1,0.3
		c-7.7,12.8-13.6,26.5-18.2,40.5c-9.3,28.3-14,57.9-16.9,87.6c-1.4,14.9-2.4,29.8-3,44.7c-0.5,13.4-0.9,26.9-1.3,40.2
		c0,0.2,0,0.3,0,0.5c-0.5,18.8-4.9,37.2-9.6,52.3c-4,12-8.5,22.9-13.9,34c-21.2-5.3-40.7-7.2-56.4-9.7c-15.7-2.5-28.9-4.4-39.5-5.5
		c-12.5-1.2-23-1.8-31.5-2.1c-12.5,0-23.4,0.9-32.7,2.8c-9.3,1.8-17.5,4.3-24.6,7.3c-7,3-13,6.4-17.8,10.2
		c-4.8,3.8-8.8,7.8-11.8,11.9c-7.4,9.5-11.5,20.3-12.5,32.5c-0.2,6.7,0.9,12.9,3.3,18.7c2.4,5.8,5.8,11,10.2,15.8
		c4.4,4.7,9.6,8.8,15.8,12.3c6.1,3.5,12.7,6.1,19.9,8c12,3.2,23.2,5.1,33.8,5.7c10.5,0.6,19.8,0.6,27.9,0.2c9.2-0.7,17.8-2,25.6-3.8
		c15.2-3.5,28.7-8,40.5-13.7c11.8-5.7,22.2-11.9,31.2-18.9c9-6.9,20.4-16.9,31.2-40c6.2-13.2,10.2-23.4,13.9-34.8l0,0
		c0,0,10-26.3,13.1-46s4.1-44.3,4.1-44.8c0.4-9.8,0.9-19.6,1.4-29.4c0.8-14.7,1.8-29.4,3.2-43.9c1.4-14.5,3.2-28.9,5.7-43.1
		c2.5-14.1,5.6-28.1,9.8-41.5c4.2-13.4,9.4-26.5,16.2-38.5c0.9-1.5,1.7-3,2.6-4.5c0.9-1.5,1.8-2.9,2.8-4.4c0.3-0.4,0.6-0.9,0.9-1.3
		c0.7-1,1.3-2,2-3c1-1.4,2.1-2.9,3.1-4.3c2.4-3.2,4.8-6.3,7.3-9.3c2-2.4,4-4.8,6-7.2c4.7-5.3,9.6-10.3,14.9-15
		c5.3-4.7,10.9-9.1,16.9-13.1c12-7.9,25.5-14.1,40.4-17.5c6.5-1.4,13.2-2.4,20.1-2.8c1-0.1,2.1-0.1,3.1-0.2c2-0.1,4,0,6,0
		c2,0.1,4,0.2,6.1,0.3c4.1,0.3,8.2,0.7,12.3,1.4C608.8,251.6,641.9,261.1,638,259.1z M353.8,658.3c-5.5,6.9-11.8,13.4-18.7,19.4
		c-7.4,6.2-15.6,11.8-24.6,16.8c-9,5-18.6,9-28.7,12.1c-10.2,3.1-20.7,5.2-31.7,6.2c-11,1-21.9,0.9-32.7-0.5
		c-7.2-0.9-14-2.4-20.6-4.3c-6.6-2-12.4-4.6-17.5-8c-5.1-3.3-9.1-7.3-12.1-11.9c-3-4.6-4.4-10-4.2-16.3c0.2-7.2,1.6-13.4,4.2-18.7
		c2.5-5.3,5.7-9.9,9.5-13.7c3.8-3.8,8.1-7,12.8-9.5c4.7-2.5,9.5-4.6,14.4-6.2c11.3-3.7,24.2-5.4,38.8-5.2c8.1,0,18.9,0.6,32.5,1.7
		c13.6,1.2,29.1,3.3,46.4,6.6c7.8,1.6,15.6,3.3,23.2,5c7.6,1.7,15.3,3.5,23.2,5.4C364.1,644.3,359.4,651.4,353.8,658.3z"/>
</g>
</svg>
