<?xml version="1.0" encoding="utf-8"?>
<!-- Generator: Adobe Illustrator 24.1.1, SVG Export Plug-In . SVG Version: 6.00 Build 0)  -->
<svg version="1.1" id="Camada_1" xmlns="http://www.w3.org/2000/svg" xmlns:xlink="http://www.w3.org/1999/xlink" x="0px" y="0px"
	 viewBox="0 0 978 609" style="enable-background:new 0 0 978 609;" xml:space="preserve">
<style type="text/css">
	.st0{fill:#FC473B;}
	.st1{fill:#2B3656;}
	.st2{fill:#FFFFFF;}
	.st3{fill:#F2F2F2;}
	.st4{fill:#035B9A;}
	.st5{fill:none;}
</style>
<path id="XMLID_143_" class="st0" d="M701.9,217.8c0,87.3-70.8,158.1-158.1,158.1c-87.3,0-158.1-70.8-158.1-158.1
	c0-87.3,70.8-158.1,158.1-158.1C631.1,59.7,701.9,130.5,701.9,217.8"/>
<g id="XMLID_140_">
	<g>
		<path id="XMLID_33_" class="st1" d="M543.8,382.7c-90.9,0-164.9-74-164.9-164.9c0-90.9,74-164.9,164.9-164.9
			c90.9,0,164.9,74,164.9,164.9C708.7,308.8,634.7,382.7,543.8,382.7 M543.8,61.9c-86,0-155.9,69.9-155.9,155.9
			s69.9,155.9,155.9,155.9c86,0,155.9-69.9,155.9-155.9S629.7,61.9,543.8,61.9"/>
	</g>
</g>
<g id="XMLID_137_">
	<path id="XMLID_93_" class="st2" d="M410.2,232.7v-0.3c0-29.3,23.1-53.3,54.9-53.3c31.8,0,54.7,23.7,54.7,53v0.3
		c0,29.3-23.1,53.3-54.9,53.3C433,285.7,410.2,262,410.2,232.7 M496.1,232.7v-0.3c0-17.7-13-32.4-31.2-32.4
		c-18.3,0-30.9,14.4-30.9,32.1v0.3c0,17.7,13,32.4,31.2,32.4C483.4,264.8,496.1,250.3,496.1,232.7"/>
</g>
<g id="XMLID_132_">
	<path id="XMLID_86_" class="st3" d="M464.8,287.5c-32.2,0-56.5-23.6-56.5-54.9v-0.3c0-14.9,5.7-28.7,16.1-39
		c10.5-10.5,25-16.2,40.7-16.2c32.2,0,56.5,23.6,56.5,54.9v0.3c0,14.9-5.7,28.7-16.1,39C495,281.8,480.5,287.5,464.8,287.5
		 M465.1,180.9c-29.8,0-53.1,22.6-53.1,51.5v0.3c0,29.2,22.7,51.2,52.8,51.2c29.8,0,53.1-22.6,53.1-51.5v-0.3
		C517.9,202.9,495.2,180.9,465.1,180.9 M465.1,266.6c-18.5,0-33.1-15-33.1-34.3v-0.3c0-19.4,14.1-34,32.8-34
		c18.5,0,33.1,15,33.1,34.3v0.3C497.9,252,483.8,266.6,465.1,266.6 M464.8,201.8c-16.6,0-29.1,13-29.1,30.3v0.3
		c0,17.4,12.6,30.6,29.4,30.6c16.6,0,29.1-13,29.1-30.3v-0.3C494.2,214.9,481.6,201.8,464.8,201.8"/>
</g>
<polygon id="XMLID_131_" class="st3" points="685.6,201.4 685.6,180.8 611.2,180.8 607.1,180.8 525.2,180.8 525.2,283.9 
	547.9,283.9 547.9,244 591.8,244 591.8,223.4 547.9,223.4 547.9,201.4 607.1,201.4 607.1,283.9 629.8,283.9 629.8,244 679,244 
	679,223.4 629.8,223.4 629.8,201.4 "/>
<path id="XMLID_130_" class="st1" d="M423.7,363.6c2.2,1.8,4.9,2.8,8.2,3.3c3.1,0.4,5.9,0.1,8.4-0.9c2.5-1,3.9-2.7,4.3-5
	c0.4-2.1-0.5-4-2.6-5.7c-2.2-1.8-4.8-2.8-7.9-3.3c-3.3-0.4-6.2-0.1-8.7,0.9c-2.5,1-3.9,2.6-4.3,4.7
	C420.7,359.8,421.5,361.8,423.7,363.6"/>
<path id="XMLID_125_" class="st1" d="M704.7,366.8c3.1,0.4,5.9,0.1,8.4-0.9c2.5-1,3.9-2.7,4.3-5c0.4-2.1-0.5-4-2.6-5.7
	c-2.2-1.8-4.8-2.8-7.9-3.3c-3.3-0.4-6.2-0.1-8.7,0.9c-2.5,1-3.9,2.6-4.3,4.7c-0.4,2.3,0.5,4.3,2.6,6.1
	C698.6,365.3,701.4,366.4,704.7,366.8"/>
<path id="XMLID_117_" class="st2" d="M848.7,464.7l0.3-0.1c0.5-1.7,0.7-3.7,0.7-5.7c-0.2-0.1-0.3-0.2-0.5-0.3
	C849.3,460.7,849.1,462.8,848.7,464.7"/>
<path id="XMLID_116_" class="st4" d="M849.3,458.6c0.2,0.1,0.3,0.2,0.5,0.3c0.1-5.7-1.2-12.1-2.5-17.1c-0.1,0-0.2-0.1-0.2-0.1
	L849.3,458.6z"/>
<path class="st1" d="M965.2,303c-0.8-2.3-2-4.3-3.4-6.2c-3.3-3.5-7.9-6.3-13.7-8.4c-5-1.7-11.5-2.7-19.6-3.1
	c-8.1-0.4-18.1,0.9-30.1,4c-8.1,2.3-17.1,4.9-27.2,7.8c-10,2.9-20.4,5.9-31.2,9c-10.8,3.1-21.7,6.1-32.8,9
	c-11.1,2.9-21.9,5.5-32.5,7.8c1.7-8.3,3.2-15.5,4.7-21.7c1.4-6.2,2.7-11.1,3.7-14.6c0.6-1.9,0.7-3.8,0.2-5.7c-0.5-2-1.6-3.6-3.3-4.8
	c-3.1-2.9-6.4-4.7-9.8-5.4c-3.4-0.7-6.3-1.1-8.5-1.1c-2.9,0-4.9,1.3-5.9,4c-2.3,7.2-4.5,15.5-6.7,24.8c-2.2,9.3-4.2,19.3-6.1,29.8
	c-3.5,0.4-7,0.8-10.4,1.1c-3.4,0.3-6.6,0.5-9.5,0.5c-10.1,0-18.6-1.1-25.5-3.3c-6.8-2.2-12.3-4.9-16.5-8.2c-4.1-3.3-7-7.1-8.7-11.5
	c-1.7-4.3-2.3-8.7-1.9-13c0.2-1.7-0.3-3.1-1.6-4.2c-1.2-1.1-2.8-1.7-4.7-1.7h-3.1c-3.5,0.2-6.6,1-9.3,2.5c-2.7,1.4-4.8,3.4-6.4,5.7
	c-1.6,2.4-2.5,5-2.8,7.8c-0.3,2.8,0.2,5.6,1.4,8.5c1.9,4.1,4.9,8.4,9,12.7c4.1,4.3,9.9,8.1,17.4,11.2c7.5,3.1,16.9,5.3,28.3,6.5
	c11.4,1.2,25.4,0.7,41.9-1.6c-2.3,15.5-3.9,31-4.8,46.4c-0.5,8.4-0.7,16.4-0.6,23.9c0,0,0,0,0,0c0,0,0,0,0,0
	c-1,4.1-2.4,8.9-4.1,14.3c-2.1,6.4-4.3,12.5-6.8,18.3c-2.5,5.8-5.1,10.7-7.8,14.6c-2.7,3.9-5.4,5.7-8.1,5.3
	c-1.9-0.2-3.1-1.9-3.7-5.1c-0.6-3.2-0.7-7.2-0.3-12.1c0.4-4.9,1.1-10.3,2.2-16.1c1-5.9,2.1-11.7,3.3-17.5c1.1-5.8,2.3-11.2,3.6-16.1
	c1.2-5,2.2-8.9,2.8-11.8c0.4-1.7,0.3-3.3-0.3-4.8c-0.6-1.6-1.6-2.8-2.8-3.9c-3.3-2.3-7-3.8-11-4.7c-4-0.8-7.5-1.2-10.4-1.2
	c-3.3-0.4-5.3,1-5.9,4.3c-3.7,13.1-6.4,25.3-8.1,36.8c0.3-0.8,0.6-1.6,0.8-2.3c0.1-0.4,0.3-0.7,0.5-1c-0.2,0.3-0.4,0.6-0.5,1
	c-0.3,0.7-0.5,1.5-0.8,2.3c0,0,0,0,0,0c-0.4,1.2-0.9,2.5-1.3,3.9c-0.8,2.5-1.9,5.3-3.1,8.4c-1.2,3.1-2.6,6.3-4,9.5
	c-1.5,3.2-2.9,6.3-4.3,9.2c-1.9,3.3-3.8,6.5-5.9,9.6c-1.7,2.7-3.5,5.4-5.6,8.2c-2.1,2.8-4.2,5.3-6.5,7.6c-2.1,2.1-4,3.7-5.7,5
	c-1.8,1.2-3.5,1.7-5.1,1.2c-1.2-0.2-1.9-1.7-1.9-4.3c0-2.7,0.4-6.2,1.2-10.6c0.8-4.3,2-9.2,3.6-14.6c1.6-5.4,3.3-10.9,5.1-16.5
	c4.1-13,9.4-28,15.8-44.7c1.9-6.6,2.5-12.1,1.9-16.3c-0.6-4.2-1.8-7.7-3.4-10.4c-1.9-3.1-4.1-5.5-6.8-7.1c-4.3-2.5-9.4-2.4-15.1,0.3
	c-5.7,2.7-11.6,6.8-17.7,12.3c-6.1,5.5-12.2,11.9-18.2,19.1c-6,7.2-11.5,14.3-16.5,21.1c-5,6.8-9.3,12.8-12.9,18
	c-3.6,5.2-6.1,8.5-7.3,9.9c-1.9,2.3-3.1,2.8-3.6,1.6c-0.5-1.2-0.7-3.4-0.5-6.4c0.2-3,0.6-6.6,1.2-10.7c0.6-4.1,1.2-8.1,1.9-11.8
	c0.4-3.7,0.6-7.6,0.5-11.6c-0.1-4-0.9-7.7-2.3-11c-1.5-3.3-3.8-6.1-7-8.2c-3.2-2.2-7.6-3.3-13.2-3.3c-4.3,0-8.9,2-13.5,6.1
	c-4.7,4-9.2,9-13.5,14.8c-4.3,5.8-8.3,11.9-12,18.3c-3.6,6.4-6.7,11.9-9.2,16.5c1.4-12,3.4-22.6,5.9-31.8c2.5-9.2,4.6-16.4,6.2-21.6
	c0.6-1.9,0.6-3.7,0-5.4c-0.6-1.8-1.8-3.2-3.4-4.2c-3.3-2.1-7-3.4-11-3.9c-4-0.5-7.5-0.8-10.4-0.8c-3.1,0-5.2,1.6-6.2,4.7
	c-1,3.1-2.4,7.5-4,13c-1.7,5.6-3.2,11.7-4.5,18.3c-1.3,6.4-2.4,13.1-3.2,20.1c0.3-1.3,0.6-2.5,0.9-3.6c0.2-0.8,0.7-1.3,1.4-1.5
	c-0.7,0.2-1.2,0.7-1.4,1.5c-0.3,1.1-0.6,2.3-0.9,3.6c0,0.2,0,0.4-0.1,0.6c0-0.2,0.1-0.4,0.1-0.6c-1,3.8-2.2,8-3.8,12.9
	c-2.1,6.4-4.3,12.5-6.8,18.3c-2.5,5.8-5.1,10.7-7.8,14.6c-2.7,3.9-5.4,5.7-8.1,5.3c-1.9-0.2-3.1-1.9-3.7-5.1
	c-0.6-3.2-0.7-7.2-0.3-12.1c0.4-4.9,1.1-10.2,2.2-16.1c1-5.9,2.1-11.7,3.3-17.5c1.1-5.8,2.3-11.2,3.6-16.1c1.2-5,2.2-8.9,2.8-11.8
	c0.4-1.7,0.3-3.3-0.3-4.8c-0.6-1.6-1.6-2.8-2.8-3.9c-3.3-2.3-7-3.8-11-4.7c-4-0.8-7.5-1.2-10.4-1.2c-3.3-0.4-5.3,1-5.9,4.3
	c-4.3,15.3-7.3,29.5-8.9,42.5c-1.6,13-1.7,24.3-0.3,33.7c1.3,9.4,4.1,16.8,8.2,22.2c4.1,5.4,9.6,8.2,16.5,8.4c4.1,0.2,8-1,11.6-3.6
	c3.6-2.6,6.9-6,9.9-10.1c3-4.1,5.7-8.7,8.1-13.8c1.8-3.9,3.5-7.9,4.9-11.7c0,0,0,0,0,0c0.2-0.4,0.3-0.8,0.4-1.2
	c-0.1,0.4-0.3,0.8-0.4,1.2c0.8,3.3,1.9,6.5,3.3,9.4c2.5,5.2,6.3,9.1,11.5,11.8c0.8,0.2,1.7,0.5,2.5,0.9c2.1,0.8,3.9,1.1,5.6,0.9
	c1.2-0.2,2.3-0.6,3.3-1.1c0.9-0.5,1.7-1.1,2.3-1.7c0.8-0.8,1.3-1.7,1.6-2.5c0.8-2.5,2.4-6.7,4.8-12.7c2.4-6,5.2-12.3,8.5-18.8
	c3.3-6.5,7-12.7,11-18.5c4-5.8,8.1-9.7,12.3-11.8c0.4-0.2,0.8-0.1,1.2,0.3c0.6,0.6,0.4,3-0.6,7.1c-0.6,2.1-1.3,6-2,11.8
	c-0.7,5.8-0.7,11.8,0.2,18c0.8,6.2,2.8,11.6,6.1,16.1c3.2,4.6,8.4,6.6,15.7,6.2c2.5,0,5.2-0.7,8.1-2.2c2.5-1.2,5.2-3.2,8.2-5.7
	c3-2.6,6.3-6.5,9.8-11.6c2.1-3.3,4.8-7.3,8.2-12.1c3.4-4.8,7-9.7,10.9-14.9c3.8-5.2,7.8-10.4,11.8-15.5c4-5.2,7.9-9.8,11.5-13.8
	c3.6-4,6.8-7.2,9.5-9.5c2.7-2.3,4.8-3.3,6.2-3.1c-9.5,21.1-16.8,40.4-21.7,57.8c-2.1,7.5-3.8,14.8-5.1,22.1
	c-1.3,7.2-1.9,13.8-1.6,19.7c0.3,5.9,1.6,10.9,3.7,15.1c2.2,4.1,5.6,6.8,10.4,8.1c4.8,1.2,9.4,1.1,13.8-0.3
	c4.4-1.5,8.5-3.6,12.3-6.5c3.7-2.9,7.1-6.2,10.2-9.9c3.1-3.7,5.7-7.3,7.9-10.6c2.2-3.3,3.9-6.2,5.1-8.5c1.2-2.4,2-3.7,2.2-3.9
	c1.5-2.8,2.9-5.8,4.2-8.7c0.2,2.6,0.4,5,0.7,7.3c1.3,9.4,4.1,16.8,8.2,22.2c4.1,5.4,9.6,8.2,16.5,8.4c4.1,0.2,8-1,11.6-3.6
	c3.6-2.6,6.9-6,9.9-10.1c3-4.1,5.7-8.7,8.1-13.8c2.4-5.1,4.4-10.1,6.1-15.1c0-0.1,0-0.1,0.1-0.2c1.3,9.7,3.1,17.3,5.5,23
	c3.1,7.5,6.3,12.9,9.6,16.5c3.7,3.9,7.9,6.1,12.4,6.5c4.1,0.2,8-1.1,11.6-4c3.6-2.9,7-6.6,10.1-11.2c3.1-4.6,5.9-9.6,8.4-15.2
	c2.5-5.6,4.7-11,6.5-16.3c1.9-5.3,3.4-10,4.5-14.3c0.6-2.4,1.2-4.4,1.6-6c0,0,0,0.1,0.1,0.1c1.1,2.8,2.5,5.8,4.3,9.2
	c1.7,3.4,3.9,6.9,6.5,10.6c0.7,1.1,1.5,2.3,2.2,3.6c-7.7,2-13.7,5.6-17.9,10.7c-4.2,5.1-6.5,10.4-6.9,15.7
	c-0.4,5.3,0.6,9.5,2.9,12.5c2.3,3,4.9,5.3,7.9,6.8c3.3,1.8,7.2,3,11.6,3.6c5.7,0.2,10.8-1.1,15.4-3.7c4.6-2.7,8.4-6.4,11.3-11.2
	c1.1-1.7,1.9-3.4,2.5-5.4c0.6-1.9,1-3.8,1.4-5.7c0,0,0-0.1,0-0.2l0,0c0.3-2,0.5-4,0.5-6.2l-2.2-16.8c-0.9-2.8-1.8-5.3-2.8-7.7
	c-0.9-2.4-1.8-4.4-2.8-6.1l-0.1-0.2l0,0l-2.7-5.4c-2.2-4.2-4-8.2-5.4-11.8c-1.4-3.7-2.5-6.8-3.4-9.4c-0.9-3.1-1.6-5.8-1.9-8
	c-0.4-4.8,0-8.3,1.1-10.5c1.1-2.2,2.3-3.9,3.7-5.1c1.4-1.2,2.6-2.2,3.7-3c1.1-0.8,1.4-2.2,0.8-4.3c-0.9-2.6-2.4-4.4-4.5-5.5
	c-2.1-1.1-4.4-1.8-6.8-2.2c-2.8-0.4-5.8-0.2-9.1,0.5c-3.1,0.7-5.7,2-7.9,3.7c-2.1,1.7-3.8,3.7-5,5.9c-1.2,2.2-2,4.6-2.5,7.3
	c-0.5,2.7-0.7,5.4-0.7,8.1c0,5.7,0.9,12,2.8,18.9l0,0c0,0,0,0,0,0c0,0,0,0,0,0l0,0c0.2,0.6,0.3,1.2,0.5,1.8c0.4,1.1,0.8,2.4,1.2,3.6
	c-0.4-1.2-0.9-2.4-1.3-3.6c-0.2-0.6-0.3-1.2-0.5-1.8c-1.1-0.3-2,0.3-2.6,1.7c-0.8,2.5-2.3,7-4.5,13.5c-2.2,6.5-4.7,13.2-7.6,19.9
	c-2.9,6.7-5.9,12.7-9,17.9c-3.1,5.2-6,7.8-8.7,7.8c-3.5,0-6.2-2-7.9-6.1c-1.8-4-2.9-9.4-3.4-16.1c-0.5-6.7-0.5-14.5,0-23.3
	c0.5-8.8,1.4-18.1,2.6-27.9c1.2-9.8,2.7-19.8,4.3-29.8c1.7-10,3.4-19.6,5.3-28.7c23-4.3,44.2-9,63.7-14c19.5-5,36.3-9,50.6-12
	c14.3-3,25.5-4.5,33.7-4.5c8.2,0,12.6,2.8,13.2,8.4c0.2,2.3,0.9,3.9,2.2,5c1.2,1,2.5,1.8,3.7,2.2c1.4,0.6,3.1,0.9,5,0.9
	c4.1,0.2,7.9-0.3,11.3-1.6c3.4-1.2,5.9-2.8,7.6-4.7c1.7-2.3,2.5-4.5,2.6-6.7C966.1,306.9,965.8,304.9,965.2,303z M462,434.4
	c-0.6-6.2-0.5-12.7,0.2-19.6C461.5,421.7,461.4,428.2,462,434.4c0.2,1.8,0.4,3.5,0.7,5.1C462.5,437.9,462.2,436.2,462,434.4z
	 M469.6,410.4c0,0-0.1-0.1-0.1-0.1C469.6,410.3,469.6,410.4,469.6,410.4z M464.7,407.8c0.7-0.2,1.5-0.1,2.3,0.3
	c0.2,0.2,0.7,0.5,1.6,0.9c0,0,0,0,0,0c-0.8-0.4-1.4-0.7-1.6-0.9C466.2,407.7,465.4,407.6,464.7,407.8
	C464.7,407.8,464.7,407.8,464.7,407.8z M466.4,433.4c0.2-0.6,0.4-1.2,0.5-1.8C466.8,432.2,466.6,432.8,466.4,433.4z M682.2,408.2
	c0.3,0.2,0.5,0.3,0.6,0.4C682.8,408.4,682.6,408.3,682.2,408.2z M680.2,407.8c0.4-0.1,0.7-0.1,1-0.1
	C680.9,407.7,680.6,407.7,680.2,407.8c-0.4,0.1-0.7,0.3-0.9,0.5C679.5,408.1,679.8,407.9,680.2,407.8z M676.9,442.1
	c0.1-0.1,0.1-0.3,0.2-0.4c1.2-2.8,2.2-5.5,3.1-8.1c-0.9,2.6-1.9,5.3-3.1,8.1C677,441.8,677,442,676.9,442.1z M683.1,424.6
	c0.3-1,0.6-1.9,0.8-2.8c0.4-1.5,0.8-2.9,1.1-4.1c-0.3,1.2-0.7,2.5-1.1,4.1C683.7,422.7,683.4,423.7,683.1,424.6z M685.7,414.9
	c0.5-2.3-0.2-4.3-1.9-5.8c-0.3-0.2-0.5-0.3-0.6-0.4c0.1,0.1,0.3,0.2,0.6,0.4C685.5,410.6,686.1,412.6,685.7,414.9z M739.8,408.2
	C739.8,408.2,739.8,408.2,739.8,408.2L739.8,408.2C739.8,408.2,739.8,408.2,739.8,408.2z M735.9,422.9c0.1,2.2,0.2,4.4,0.4,6.5
	c0.2,2.5,0.5,4.9,0.8,7.3c-0.3-2.3-0.5-4.7-0.8-7.3C736.1,427.3,736,425.1,735.9,422.9z M742.4,420.7c0.4-2.1,0.7-4,0.8-5.4
	c0.1-0.6,0.1-1.1,0.1-1.6c0,0.5,0,1.1-0.1,1.6C743.1,416.8,742.8,418.6,742.4,420.7z M844,466.8l-7.6,3.4v-32.3l-2.1-4.2l2.1,4.2
	v32.3L844,466.8z M834.3,431.9l-0.7,0.4v0L834.3,431.9z M825,453.6c0.7,4.6,0.6,8.8-0.4,12.5c-1,3.8-2.6,6.6-4.8,8.4
	c-1.3,0.7-2.5,1.3-3.6,1.7c-0.9,0.4-2,0.5-3.3,0.5c-1.3,0-2.5-0.5-3.6-1.4c-0.7-0.7-1.4-1.6-1.9-2.5c-0.4-0.9-0.7-2-1-3.2
	c-0.3-1.2,0-2.7,0.7-4.5c0.9-2.4,3-4.7,6.2-6.9C816.5,456.1,820.4,454.5,825,453.6z M808.4,411.5c-0.3-1-0.9-2-1.9-2.9
	c-0.4-0.2-0.7-0.4-1-0.5c0.3,0.2,0.6,0.3,1,0.5C807.4,409.5,808.1,410.5,808.4,411.5z M808.4,414.8c0.1-0.5,0.2-0.9,0.2-1.4
	C808.5,413.9,808.5,414.3,808.4,414.8c-0.2,0.8-0.4,1.9-0.8,3.1c0,0,0,0,0,0C807.9,416.6,808.2,415.6,808.4,414.8z"/>
<g id="XMLID_112_">
	<g>
		<path id="XMLID_40_" class="st1" d="M546,528.5v8.7h-2V491h2v23.1c2.2-5.3,7.1-9.5,14.1-9.5c8.6,0,15.7,6.9,15.7,16.6v0.1
			c0,9.7-7.1,16.6-15.7,16.6C553.1,537.9,548.2,533.7,546,528.5 M573.7,521.3v-0.1c0-8.4-5.9-14.7-13.8-14.7c-7.8,0-14,6.4-14,14.7
			v0.1c0,8.2,6.3,14.7,14,14.7C568,535.9,573.7,529.9,573.7,521.3"/>
	</g>
</g>
<path id="XMLID_111_" class="st1" d="M581.1,545.9l0.8-1.7c1.5,0.8,3.3,1.4,5.4,1.4c3.5,0,5.6-1.7,8.7-8.5l-15.3-31.8h2.3l14,29.6
	l12.8-29.6h2.2L597.6,538c-3.4,7.6-6.1,9.5-10.4,9.5C584.9,547.4,582.8,546.7,581.1,545.9"/>
<path id="XMLID_110_" class="st1" d="M638.6,505.3h2v7.1c1.4-3.7,5.2-7.9,10.9-7.9c6.4,0,9.9,3.9,11.2,8.4c1.6-4.2,5.6-8.4,11.4-8.4
	c7.3,0,12.1,4.9,12.1,13.6v19h-2v-18.8c0-7.7-4-11.9-10.2-11.9c-5.4,0-10.6,4.9-10.6,12.1v18.6h-2v-18.9c0-7.6-4.1-11.8-10.1-11.8
	c-5.6,0-10.7,5.3-10.7,12.2v18.5h-2V505.3z"/>
<g id="XMLID_107_">
	<g>
		<path id="XMLID_37_" class="st1" d="M695,528.2V528c0-6.6,6-10.2,14.1-10.2c4.4,0,8.3,0.8,11.4,1.8v-2.1c0-7.2-4.3-10.7-11.4-10.7
			c-3.9,0-7.2,1.1-10.4,2.7l-0.8-1.8c3.5-1.7,7-2.8,11.3-2.8c4.4,0,7.8,1.1,10.1,3.5c2,2.1,3.2,5.1,3.2,9v19.8h-2v-6.6
			c-1.6,3.5-6.1,7.4-13.4,7.4C700.9,537.9,695,534.6,695,528.2 M720.5,525.4v-3.9c-3.1-1-6.8-1.8-11.5-1.8c-7,0-11.9,3-11.9,8.2v0.1
			c0,5.2,4.7,8,10,8C714.9,536,720.5,531.1,720.5,525.4"/>
	</g>
</g>
<g id="XMLID_104_">
	<g>
		<path id="XMLID_34_" class="st1" d="M733.6,505.3h2v8.8c2.2-5.3,7.1-9.5,14.1-9.5c8.6,0,15.7,6.9,15.7,16.6v0.1
			c0,9.7-7.1,16.6-15.7,16.6c-7,0-11.9-4.2-14.1-9.4v18.8h-2V505.3z M763.3,521.3v-0.1c0-8.4-5.9-14.7-13.8-14.7
			c-7.8,0-14,6.4-14,14.7v0.1c0,8.2,6.3,14.7,14,14.7C757.6,535.9,763.3,529.9,763.3,521.3"/>
	</g>
</g>
<path id="XMLID_103_" class="st1" d="M772.2,533l1.2-1.6c3.5,2.8,7.8,4.4,11.9,4.4c5.1,0,9.1-2.7,9.1-6.6V529c0-4.5-4.8-5.9-9.7-7.2
	c-5.9-1.7-11.1-3.3-11.1-8.7v-0.1c0-4.7,4.4-8.3,10.9-8.3c3.7,0,7.8,1.3,11.2,3.5l-1.1,1.7c-3-2.1-6.8-3.3-10.1-3.3
	c-5.2,0-8.7,2.7-8.7,6.3v0.1c0,4,4.5,5.4,9.7,6.9c5.8,1.6,11.1,3.4,11.1,9v0.1c0,5.2-4.9,8.7-11.3,8.7
	C780.6,537.7,775.6,535.9,772.2,533"/>
<path id="XMLID_102_" class="st0" d="M280.8,463.3c9.9,2.6,62,16.5,71.4,19.7c9.4,3.2,18.7,6.5,28,10c9.2,3.5,18.4,7,27.6,10.5
	c18.3,7,36.5,14.2,54.7,21c18.2,6.9,36.5,13.5,54.9,19.7c18.4,6.1,36.8,11.9,55.4,16.7c18.6,4.8,37.3,9,56.2,11.8
	c18.8,2.8,37.8,4.5,56.5,3.9c2.3-0.1,4.7-0.1,7-0.3c2.3-0.1,4.7-0.3,7-0.5c2.3-0.2,4.6-0.4,7-0.7c2.3-0.2,4.7-0.6,7.1-0.9
	c9.6-1.2,18.9-2.8,28.2-4.6c9.3-1.9,18.5-4.2,27.5-7.1c9-2.8,17.9-6.1,26.4-10c17.1-7.8,33-18.1,46.5-31.2
	c6.7-6.6,12.8-13.7,18.1-21.6c1.3-2,2.5-4,3.8-6c1.2-2,2.3-4.1,3.5-6.2c2.2-4.2,4.2-8.5,6.1-13c3.7-8.8,13-46.8,13-41.8
	c0,4.9-0.2,9.9-0.6,14.8c-0.9,9.9-2.7,19.7-5.6,29.4c-5.7,19.3-15.6,37.6-29.1,53c-13.5,15.5-30.2,27.9-48.2,37.5
	c-9,4.8-18.3,8.9-27.9,12.5c-9.5,3.5-19.2,6.5-29,9c-9.8,2.5-19.7,4.4-29.5,6.1c-2.5,0.4-4.8,0.8-7.4,1.2c-2.5,0.4-5.1,0.7-7.6,1
	c-5.1,0.6-10.2,1-15.3,1.3c-20.4,1-40.7-0.2-60.7-2.9c-39.9-5.4-78.5-16.2-116-28.7c-18.8-6.4-37.3-13.2-55.7-20.3
	c-18.3-7.2-36.6-14.5-54.7-21.9c-18.1-7.4-36.2-14.7-54.3-21.5c-9-3.3-18.1-6.5-27.1-9.1c-2.3-0.6-44.3-11.7-46.6-12.3"/>
<g>
	<path class="st5" d="M216.4,469.4c-20.5-3.8-38.9-6.4-55-7.8c-16.1-1.4-29-2.1-38.6-2.1c-17.2-0.3-32.6,1.8-46,6.2
		c-5.7,1.9-11.4,4.4-17,7.4c-5.6,3-10.7,6.8-15.2,11.3c-4.5,4.5-8.3,9.9-11.3,16.2c-3,6.3-4.7,13.7-4.9,22.2
		c-0.3,7.4,1.4,13.8,4.9,19.3c3.6,5.5,8.3,10.2,14.4,14.2c6,4,12.9,7.1,20.7,9.4c7.8,2.3,15.9,4,24.4,5.1
		c12.9,1.6,25.8,1.8,38.8,0.6c13-1.2,25.5-3.7,37.5-7.4c12-3.7,23.4-8.5,34.1-14.4c10.7-5.9,20.4-12.5,29.1-19.9
		c8.2-7.1,15.6-14.8,22.2-23c6.6-8.2,12.2-16.6,16.8-25c-9.3-2.2-18.5-4.3-27.5-6.4C234.9,473.3,225.7,471.3,216.4,469.4z"/>
	<path class="st1" d="M591.4,33.5c-4.6-2.4-9.3-4.7-14.1-6.8c-9.6-4.1-19.6-7.5-29.7-10c-11.6-2.9-23.4-4.4-35.1-4.8
		c-8.8-0.3-17.6,0.2-26.1,1.4c-19.9,2.9-38.3,9.7-54.5,19c-8.1,4.6-15.8,9.8-22.9,15.5c-7.1,5.7-13.8,11.7-20.1,18.1
		c-6.3,6.3-12.1,13.1-17.6,19.9c-1.4,1.7-2.7,3.3-4.1,5.2c-1.4,1.8-2.7,3.6-4,5.4c-2.6,3.6-5.1,7.4-7.4,11.2
		c-0.1,0.1-0.1,0.2-0.2,0.3c-9.1,15.2-16.1,31.4-21.6,48c-11.1,33.5-16.6,68.6-20,103.8c-1.6,17.6-2.8,35.3-3.5,53
		c-0.6,15.9-1.1,31.8-1.5,47.7c0,0.2,0,0.4,0,0.6c-0.6,22.3-5.9,44.1-11.4,62.1c-4.8,14.2-10,27.2-16.5,40.3
		c-25.2-6.3-48.2-8.5-66.8-11.5c-18.6-3-34.2-5.2-46.8-6.6c-14.8-1.4-27.2-2.2-37.3-2.5c-14.8,0-27.7,1.1-38.8,3.3
		c-11.1,2.2-20.8,5.1-29.1,8.6c-8.3,3.6-15.4,7.6-21.1,12.1c-5.7,4.5-10.4,9.2-14,14.2C18,492.1,13.1,504.9,12,519.4
		c-0.3,7.9,1,15.3,3.9,22.2c2.9,6.8,6.9,13.1,12.1,18.7c5.2,5.6,11.4,10.5,18.7,14.6c7.2,4.1,15.1,7.2,23.6,9.4
		c14.2,3.8,27.6,6.1,40,6.8c12.4,0.7,23.5,0.7,33,0.2c10.9-0.8,21.1-2.3,30.4-4.5c18.1-4.1,34.1-9.5,48-16.2
		c14-6.7,26.3-14.2,36.9-22.4c10.7-8.2,24.1-20,37-47.4c7.3-15.6,12.1-27.8,16.5-41.2l0,0c0,0,11.8-31.2,15.5-54.6
		c3.7-23.4,4.8-52.6,4.8-53.2c0.5-11.7,1-23.3,1.7-34.9c1-17.5,2.1-34.8,3.8-52c1.7-17.2,3.8-34.3,6.8-51.1
		c3-16.8,6.7-33.3,11.7-49.3c5-15.9,11.1-31.4,19.2-45.6c1-1.8,2-3.6,3.1-5.3c1.1-1.7,2.1-3.5,3.3-5.2c0.3-0.5,0.7-1,1-1.5
		c0.8-1.2,1.6-2.4,2.4-3.5c1.1-1.6,2.5-3.4,3.7-5.1c2.8-3.8,5.7-7.5,8.6-11.1c2.3-2.9,4.7-5.7,7.1-8.5c5.5-6.3,11.4-12.2,17.7-17.8
		c6.3-5.6,12.9-10.8,20-15.5c14.2-9.4,30.2-16.7,47.9-20.7c7.7-1.7,15.6-2.8,23.8-3.3c1.2-0.1,2.5-0.2,3.7-0.2c2.4-0.1,4.8,0,7.1,0
		c2.4,0.1,4.8,0.2,7.2,0.3c4.8,0.4,9.7,0.9,14.5,1.6C556.8,24.6,596,35.9,591.4,33.5z M254.6,506.7c-6.6,8.2-14,15.9-22.2,23
		c-8.8,7.4-18.5,14-29.1,19.9c-10.7,5.9-22,10.7-34.1,14.4c-12,3.7-24.6,6.2-37.5,7.4c-13,1.2-25.9,1-38.8-0.6
		c-8.5-1.1-16.6-2.8-24.4-5.1c-7.8-2.3-14.7-5.5-20.7-9.4c-6-4-10.8-8.7-14.4-14.2c-3.6-5.5-5.2-11.9-4.9-19.3
		c0.3-8.5,1.9-15.9,4.9-22.2c3-6.3,6.8-11.7,11.3-16.2c4.5-4.5,9.6-8.3,15.2-11.3c5.6-3,11.3-5.5,17-7.4c13.4-4.4,28.7-6.4,46-6.2
		c9.6,0,22.4,0.7,38.6,2.1c16.1,1.4,34.5,4,55,7.8c9.3,1.9,18.5,3.9,27.5,5.9c9,2.1,18.2,4.2,27.5,6.4
		C266.7,490.2,261.1,498.5,254.6,506.7z"/>
</g>
</svg>
