<svg clip-rule="evenodd" fill-rule="evenodd" stroke-linejoin="round" stroke-miterlimit="2" viewBox="0 0 4234 2100" xmlns="http://www.w3.org/2000/svg"><path d="m1165.08 317.284c-70.08 0-127.84 53.666-134.39 122.057l-63.811-74.354-27.029 43.259-67.723-99.061-101.976 138.86-84.599-138.833-243.552 361.977 15.276 10.278 227.509-338.131 83.944 137.755 101.141-137.727 58.297 81.876-169.614 242.805 15.172 10.429 194.768-283.33 154.927 180.533c-.02 9.359.42 34.467 1.77 105.939l18.4-.347c-.59-31.217-1.37-74.623-1.68-95.925 7.62 1.318 15.37 1.99 23.17 1.99 74.45 0 135.02-60.572 135.02-135.025 0-74.454-60.57-135.025-135.02-135.025z" fill-rule="nonzero" transform="matrix(4.16667 0 0 4.16667 -1609 -1014)"/></svg>