<?xml version="1.0" encoding="utf-8"?>
<!-- Generator: Adobe Illustrator 25.0.1, SVG Export Plug-In . SVG Version: 6.00 Build 0)  -->
<svg version="1.1" id="Camada_1" xmlns="http://www.w3.org/2000/svg" xmlns:xlink="http://www.w3.org/1999/xlink" x="0px" y="0px"
	 viewBox="0 0 863.9 549.3" style="enable-background:new 0 0 863.9 549.3;" xml:space="preserve">
<style type="text/css">
	.st0{fill:#FD473B;}
	.st1{fill:#2B3656;}
	.st2{font-family:'Gotham-Light';}
	.st3{font-size:43.85px;}
</style>
<path class="st0" d="M137.2,300.6h81v10.1h-70v48.4h60.5v10.1h-60.5v48.4h-11V300.6z"/>
<path class="st0" d="M228.3,300.6h81v10.1h-70v48.4h60.5v10.1h-60.5v62.1l-11-6.3V300.6z"/>
<polygon class="st1" points="326.5,431.4 326.5,431.4 326.5,431.4 "/>
<path class="st0" d="M9.1,360.1v-0.3c0-32.5,24-61.6,60.1-61.6s59.7,28.8,59.7,61.3v0.3c0,32.5-24,61.6-60.1,61.6
	S9.1,392.6,9.1,360.1z M117.2,360.1v-0.3c0-28-20.4-50.9-48.4-50.9s-48,22.6-48,50.6v0.3c0,28,20.4,50.9,48.4,50.9
	S117.2,388,117.2,360.1L117.2,360.1z"/>
<rect x="381.8" y="301" class="st1" width="11.9" height="123.7"/>
<rect x="380.3" y="252.5" class="st1" width="14.8" height="16.3"/>
<path class="st1" d="M563.8,298.1c-23.3,0-36.6,12.9-44.6,26.7c-6.8-14.3-20.1-26.7-41.7-26.7c-3.4,0-6.9,0.3-10.3,1H467
	c-6.4,0.9-17.5,5.6-28.2,16.3c-7.2,7.4-12,16.8-13.7,26.9c-0.1,0.4-0.2,0.7-0.3,1.1c-0.3,1.5-0.4,3-0.5,4.5v0.1v0.7
	c0,0.6,0,1.2,0,1.7c0,0.3,0,0.6,0,1l0,0c0,1.8,0,3.6,0,5.5v67.7h11.9v-71.3c0-25,17.5-44.4,39.5-44.4s36.1,15.8,36.1,41.5v74.2h11.9
	v-72c0-27.6,18.2-43.6,39-43.6c22.8,0,36.6,15.5,36.6,42.2v73.5h11.9v-74.9C611.3,318.7,593.1,298.1,563.8,298.1z"/>
<rect x="641.4" y="301" class="st1" width="11.9" height="123.7"/>
<rect x="640" y="252.5" class="st1" width="14.8" height="16.3"/>
<path class="st1" d="M694.9,261.5H683V301h-18v10.9h18v81c0,23.5,15.5,34,34.7,34c7,0.1,13.8-1.4,20.1-4.4v-11.2
	c-7,3.2-12.1,4.4-18.2,4.4c-14.3,0-24.7-6.3-24.7-24v-79.8h43.4V301h-43.4V261.5z"/>
<path class="st1" d="M810.2,355.8c-17.7-5.1-34.4-10.2-34.4-24v-0.5c0-12.4,11.2-21.6,28.1-21.6c13.1,0,26.7,4.8,38.1,12.4l6.3-9.9
	c-12.4-8.2-29.1-13.6-43.9-13.6c-24,0-40.7,14.3-40.7,34.2v0.5c0,22.1,22.3,28.1,42.4,34c17.2,4.9,32.7,10.2,32.7,24.7v0.5
	c0,14.3-13.1,23.5-29.8,23.5c-15.8,0-30.8-5.8-44.4-16.3l-7,9.5c13.1,10.7,32.7,17.9,50.7,17.9c23.8,0,42.7-14.1,42.7-36.1v-0.5
	C851,368.7,830.1,361.4,810.2,355.8z"/>
<path class="st0" d="M287.5,453.2c51.7,16,115.6,35.6,167.3,51.5c51.7,16,103.7,32,157.2,39.9c51.6,7.7,106,7.4,154.1-12.9
	c44.5-18.8,87.1-57.3,96.6-103.9c0.4-2,2.4-9.9-0.1-17l-2.6-6.6c9.4,39.1-53.2,93-105,108.5c-51.8,15.5-107.3,10.5-160.7,2
	c-95-15.1-200.6-41.6-306.9-76"/>
<path class="st1" d="M597.2,21.2c-4.4-2.4-9-4.6-13.6-6.6c-9.3-4-18.8-7.3-28.6-9.8C543.8,2,532.5,0.5,521,0.1
	c-8.4-0.3-16.9,0.1-25.2,1.3c-18.5,2.7-36.4,8.9-52.7,18.1c-7.7,4.4-15.2,9.4-22.2,14.8c-6.8,5.4-13.3,11.2-19.5,17.4
	c-6.1,6.1-11.7,12.6-17.1,19.1c-1.3,1.6-2.6,3.2-4,5s-2.7,3.4-3.9,5.2c-2.6,3.5-4.9,7.1-7.1,10.8l-0.2,0.3
	c-8.7,14.6-15.7,30.1-21,46.3c-10.8,32.3-16.2,66.1-19.7,100.1c-1.6,17-2.8,34-3.6,51.1c-0.7,15.4-1.2,30.7-1.6,46
	c0,0.2,0,0.4,0,0.5c0.4,50.5-14.2,77.4-14.2,77.4c-2.9,7.5-9.2,19.7-12.9,27.2c-1.8-0.6-7.4-2.3-8.8-2.8l-0.5-0.2l-0.5-0.2l-1.8-0.6
	l0,0c-21.8-7.2-44.4-11.4-67.1-14.6c-55-7.7-124.5-9.8-174.8,13.8c-13,6.1-25.5,14.1-33.9,25.7s-11.9,27.5-6.2,40.7
	c7.7,17.5,28.3,25,47,28.9c51.8,11,117.3,10.2,168.5-3.5c21.5-5.8,43.5-14.7,61.2-28l0.1-0.1c17-10.9,25.9-24.8,31.4-34.6
	s17.8-32.7,22.3-47.8c0,0,8.7-20.6,10.3-38.9c1.1-12,2.8-50.7,2.8-51.3c0.5-11.3,1-22.5,1.7-33.6c1-16.8,2.1-33.6,3.8-50.2
	s3.8-33.1,6.7-49.3c2.8-16,6.6-31.9,11.4-47.4c4.9-15.4,10.8-30.3,18.7-44c1-1.7,2-3.4,3-5.1s2.1-3.4,3.2-5c0.3-0.5,0.7-1,1-1.5
	c0.8-1.1,1.5-2.3,2.3-3.4c1.1-1.6,2.4-3.3,3.6-4.9c2.7-3.6,5.5-7.2,8.3-10.7c2.3-2.8,4.5-5.5,6.9-8.2c5.4-6.1,11.1-11.8,17.1-17.1
	c6.1-5.4,12.6-10.4,19.4-14.9c14.1-9.4,29.8-16.1,46.3-19.9c7.6-1.7,15.3-2.7,23-3.1c1.2-0.1,2.4-0.1,3.6-0.2c2.3-0.1,4.6,0,6.9,0
	s4.6,0.2,7,0.3c4.7,0.4,9.3,0.9,14,1.6C563.8,12.5,601.6,23.5,597.2,21.2z M264.6,479.5c-20.4,13.6-55,22.8-92.3,31.8
	c-38.9,9.3-102.5,10.7-140.1-5.9c-3.7-1.6-7.4-3.6-10-6.7c-18.4-22.7,16.3-49.7,34-57.1c31.3-13.1,77.6-12.6,111.4-10.1
	c37.1,2.7,74.9,5.8,110,18.2c6,2.1,9,3.2,11.7,4.3C288.4,455.8,282.8,467.4,264.6,479.5z"/>
<text transform="matrix(1 0 0 1 596.5341 478.9191)" class="st1 st2 st3">b</text>
<text transform="matrix(1 0 0 1 624.3741 478.9191)" class="st1 st2 st3">y MAPS</text>
</svg>
